<svg width="122" height="72" fill="none" xmlns="http://www.w3.org/2000/svg"><path fill="#fff" d="M2 62h120v10H2zm46.522-5l-2.43-3.51H43.41V57h-2.916V44.4h5.454c1.116 0 2.082.186 2.898.558.828.372 1.464.9 1.908 1.584.444.684.666 1.494.666 2.43 0 .936-.228 1.746-.684 2.43-.444.672-1.08 1.188-1.908 1.548L51.654 57h-3.132zm-.054-8.028c0-.708-.228-1.248-.684-1.62-.456-.384-1.122-.576-1.998-.576H43.41v4.392h2.376c.876 0 1.542-.192 1.998-.576.456-.384.684-.924.684-1.62zm14.55 3.222c0 .036-.018.288-.054.756h-7.326c.132.6.444 1.074.936 1.422.492.348 1.104.522 1.836.522.504 0 .948-.072 1.332-.216a3.345 3.345 0 001.098-.72l1.494 1.62c-.912 1.044-2.244 1.566-3.996 1.566-1.092 0-2.058-.21-2.898-.63-.84-.432-1.488-1.026-1.944-1.782-.456-.756-.684-1.614-.684-2.574 0-.948.222-1.8.666-2.556a4.726 4.726 0 011.854-1.782c.792-.432 1.674-.648 2.646-.648.948 0 1.806.204 2.574.612a4.393 4.393 0 011.8 1.764c.444.756.666 1.638.666 2.646zm-5.022-2.898c-.636 0-1.17.18-1.602.54-.432.36-.696.852-.792 1.476h4.77c-.096-.612-.36-1.098-.792-1.458-.432-.372-.96-.558-1.584-.558zm12.778-2.124c1.2 0 2.166.36 2.898 1.08.744.72 1.116 1.788 1.116 3.204V57H71.98v-5.112c0-.768-.168-1.338-.504-1.71-.336-.384-.822-.576-1.458-.576-.708 0-1.272.222-1.692.666-.42.432-.63 1.08-.63 1.944V57h-2.808v-9.684h2.682v1.134c.372-.408.834-.72 1.386-.936a4.717 4.717 0 011.818-.342zm12.805 9.36a3 3 0 01-1.026.468 5.333 5.333 0 01-1.26.144c-1.152 0-2.046-.294-2.682-.882-.624-.588-.936-1.452-.936-2.592v-3.978h-1.494v-2.16h1.494v-2.358h2.808v2.358h2.412v2.16h-2.412v3.942c0 .408.102.726.306.954.216.216.516.324.9.324.444 0 .822-.12 1.134-.36l.756 1.98zM20 30h80v10H20zM60 0l51.962 30H8.038L60 0z"/></svg>