<svg width="64" height="64" fill="none" xmlns="http://www.w3.org/2000/svg"><path d="M62.92 49.399H50.56V7.329C50.553 3.284 47.05.006 42.728 0H7.772C3.476.02.004 3.281 0 7.301v6.288c0 .56.484 1.012 1.08 1.012h12.358v42.07c.007 4.029 3.483 7.3 7.789 7.329h34.972c4.306-.006 7.794-3.271 7.801-7.3v-6.29c0-.558-.484-1.01-1.08-1.011zM2.161 12.578V7.3c0-2.914 2.524-5.276 5.638-5.276s5.638 2.362 5.638 5.276v5.277H2.162zm19.077 49.399c-3.116-.022-5.632-2.39-5.639-5.306V7.3c0-.505-.056-1.009-.168-1.503-.01-.045-.025-.088-.036-.132a6.812 6.812 0 00-.163-.574c-.024-.07-.055-.136-.08-.205-.063-.16-.12-.317-.19-.472-.04-.084-.086-.163-.128-.246-.068-.132-.134-.266-.21-.394-.054-.092-.117-.18-.176-.271-.073-.112-.144-.225-.224-.333-.07-.095-.145-.184-.22-.275-.074-.092-.155-.195-.24-.29-.084-.093-.168-.172-.254-.262a7.851 7.851 0 00-.263-.258c-.021-.021-.041-.044-.064-.065h29.544c3.13.004 5.666 2.378 5.67 5.307v42.07H27.959c-.287 0-.562.106-.764.297a.975.975 0 00-.316.715v.983h-6.61c-.596 0-1.08.453-1.08 1.012 0 .559.484 1.011 1.08 1.011h6.61V56.7a5.084 5.084 0 01-.034.565h-6.577c-.598 0-1.081.452-1.081 1.011 0 .559.483 1.012 1.08 1.012h5.882c-.993 1.65-2.856 2.677-4.88 2.69l-.03-.002zm40.6-5.277c-.006 2.912-2.528 5.272-5.64 5.277H26.625a7.215 7.215 0 002.13-3.353.944.944 0 00.053-.185c.152-.569.23-1.153.233-1.74v-5.277h32.797V56.7zM19.186 23.04c0-.558.483-1.01 1.08-1.01H43.73c.598 0 1.081.452 1.081 1.01 0 .559-.483 1.012-1.08 1.012H20.267c-.598 0-1.081-.453-1.081-1.011zm0 5.873c0-.559.483-1.012 1.08-1.012H43.73c.598 0 1.081.453 1.081 1.012 0 .558-.483 1.011-1.08 1.011H20.267c-.596 0-1.08-.451-1.081-1.01v-.002zm0 5.872c0-.558.483-1.012 1.08-1.012H43.73c.598 0 1.081.454 1.081 1.012 0 .559-.483 1.012-1.08 1.012H20.267c-.596 0-1.08-.452-1.081-1.01v-.002zm0 5.872c0-.559.483-1.011 1.08-1.011H43.73c.598 0 1.081.452 1.081 1.011 0 .56-.483 1.012-1.08 1.012H20.267c-.597 0-1.08-.452-1.081-1.01v-.002zm0 5.873c0-.56.483-1.012 1.08-1.012H43.73c.598 0 1.081.453 1.081 1.012 0 .559-.483 1.011-1.08 1.011H20.267c-.597 0-1.08-.452-1.081-1.01v-.001zm6.18-30.996H20.56V9.366h1.631v4.795h3.176v1.373zm3.49 0h-1.64V9.366h1.64v6.168zm5.766-1.742c0-.368-.309-.449-1.266-.664-1.411-.297-2.457-.656-2.457-1.895 0-1.184 1.017-1.975 2.523-1.975a4.167 4.167 0 012.667.844l-.834 1.099a3.293 3.293 0 00-1.882-.656c-.527 0-.825.231-.825.539 0 .377.318.503 1.298.7 1.477.297 2.427.693 2.427 1.85 0 1.24-1.007 2.01-2.638 2.01a4.653 4.653 0 01-3.032-1.032l.922-1.033a3.5 3.5 0 002.167.782c.613-.003.93-.237.93-.569zm5.18-3.053h-2.007V9.366h5.642v1.373h-1.995v4.795h-1.641V10.74z" fill="#fff"/></svg>