<svg width="64" height="64" fill="none" xmlns="http://www.w3.org/2000/svg"><path d="M39.08 24.703a1.072 1.072 0 00-1.514 0l-1.021 1.021c-1.829-1.42-3.951-1.445-5.41.013-1.546 1.547-1.022 3.222.169 5.23L29.18 33.09a6.084 6.084 0 01-.819-2.106 1.066 1.066 0 00-1.14-.85l-.26.022a1.075 1.075 0 00-.963 1.28 8.004 8.004 0 001.532 3.302l-.567.567a1.072 1.072 0 001.515 1.513l.558-.558c1.943 1.502 3.981 1.454 5.462-.028 1.503-1.503 1.028-3.168-.212-5.221l2.03-2.03c.224.427.399.878.52 1.345.14.53.659.867 1.2.78l.254-.04a1.07 1.07 0 00.881-1.295 6.88 6.88 0 00-1.163-2.485l1.072-1.07a1.072 1.072 0 000-1.513zm-6.688 9.831a1.358 1.358 0 01-1.715.093l1.753-1.753c.378.773.383 1.236-.038 1.66zm.78-5.435c-.37-.754-.358-1.228.064-1.65a1.329 1.329 0 011.675-.09l-1.74 1.74zm-4.921 18.44a.982.982 0 01-1.388 1.388L14.43 36.491a.981.981 0 111.388-1.388L28.25 47.54zm-3.542 3.542a.98.98 0 11-1.388 1.388L10.886 40.036a.981.981 0 111.389-1.388l12.434 12.433zM61.957 2.697A7.592 7.592 0 0055.244.78a12.185 12.185 0 00-6.488 3.482 13.33 13.33 0 00-2.3 3.074l-13.195.229a6.102 6.102 0 00-4.24 1.8L.291 38.095a.968.968 0 000 1.385l23.582 23.587a.982.982 0 001.385 0l28.736-28.73a6.135 6.135 0 001.8-4.244l.196-11.29c.011-.005.017-.005.028-.01a12.894 12.894 0 004.374-2.894A12.14 12.14 0 0063.87 9.41 9.273 9.273 0 0064 7.902a7.253 7.253 0 00-2.042-5.205zM45.363 14.121a6.928 6.928 0 001.828 3.342c.335.337.708.634 1.11.886a2.822 2.822 0 01-2.938-4.228zm8.468 15.938a4.184 4.184 0 01-1.228 2.888L24.569 60.981 2.372 38.79l28.035-28.04a4.208 4.208 0 012.888-1.229l12.332-.213a9.886 9.886 0 00-.455 2.249 4.659 4.659 0 00-.78.633 4.787 4.787 0 006.77 6.77l.005-.006a4.43 4.43 0 00.343-.381 5.96 5.96 0 00.258-.348l.016-.034a4.767 4.767 0 00.23-.387c.065-.12.123-.243.174-.37.077-.17.14-.347.19-.527.04-.138.072-.279.096-.42.029-.131.05-.265.062-.399v-.022a1.46 1.46 0 00.01-.163 1 1 0 00.006-.134 3.78 3.78 0 00-.005-.505 4.717 4.717 0 00-2.025-3.606c0-.017.006-.028.006-.04.082-.466.224-.92.42-1.35.023.01.046.027.068.039a6.542 6.542 0 012.938 4.306.237.237 0 00.006.09c.034.202.067.398.084.589l.017.24c.012.152.016.304.011.455l-.033 1.986v.022L53.83 30.06zM52.076 8.653a.785.785 0 00-.073-.045c.16-.203.332-.396.516-.578a6.929 6.929 0 013.595-1.99c.527-.09 1.497-.151 2.074.426.578.578.517 1.548.427 2.075a6.894 6.894 0 01-1.99 3.59c-.332.33-.693.63-1.078.896a8.438 8.438 0 00-3.471-4.374zm9.859.438A10.199 10.199 0 0159 14.514a11.163 11.163 0 01-2.977 2.136l.01-.628c.007-.19 0-.376-.01-.566-.006-.124-.017-.253-.028-.382v-.005a9.728 9.728 0 002.018-1.548 8.878 8.878 0 002.536-4.66c.15-.898.224-2.586-.976-3.786-1.2-1.2-2.883-1.121-3.78-.976a8.928 8.928 0 00-4.66 2.541c-.349.35-.671.725-.965 1.122a8.982 8.982 0 00-1.026 1.75c-.198.44-.354.898-.466 1.367-.033.14-.061.28-.084.421a5.505 5.505 0 00-.045 1.56 3.65 3.65 0 001.021 2.22c.293.294.64.53 1.02.695l-.016.18a2.4 2.4 0 01-.04.219 1.339 1.339 0 01-.05.201c-.024.09-.054.178-.09.264a1.81 1.81 0 01-.078.174c-.022.05-.05.095-.079.145a1.866 1.866 0 01-.09.152 4.853 4.853 0 01-1.57-1.037 5.192 5.192 0 01-1.441-3.242 7.239 7.239 0 01.079-1.761c.01-.084.028-.163.045-.247a8.604 8.604 0 01.454-1.525c.258-.66.584-1.289.976-1.879.423-.638.91-1.231 1.452-1.772a10.21 10.21 0 015.423-2.927c.387-.066.78-.1 1.172-.1a5.952 5.952 0 012.125.375c.641.237 1.223.61 1.705 1.093a5.622 5.622 0 011.369 5.003z" fill="#fff"/></svg>